<svg width="252" height="96" viewBox="0 0 252 96" fill="none" xmlns="http://www.w3.org/2000/svg">
<rect x="11" y="49" width="168" height="41" rx="20.5" fill="white"/>
<rect x="13" y="51" width="164" height="37" rx="18.5" stroke="#4285F4" stroke-opacity="0.8" stroke-width="4"/>
<rect y="28" width="252" height="41" rx="20.5" fill="white"/>
<rect x="2" y="30" width="248" height="37" rx="18.5" stroke="#4285F4" stroke-opacity="0.8" stroke-width="4"/>
<ellipse cx="51" cy="48" rx="51" ry="46" fill="white"/>
<path d="M51 0C79.1673 0 102 21.4896 102 48C102 74.5104 79.1673 96 51 96C22.8327 96 0 74.5104 0 48C0 21.4896 22.8327 0 51 0ZM51 6.696C39.3608 6.696 28.1984 11.0477 19.9683 18.7937C11.7381 26.5397 7.1145 37.0455 7.1145 48C7.1145 58.9545 11.7381 69.4603 19.9683 77.2063C28.1984 84.9523 39.3608 89.304 51 89.304C62.6392 89.304 73.8016 84.9523 82.0317 77.2063C90.2619 69.4603 94.8855 58.9545 94.8855 48C94.8855 37.0455 90.2619 26.5397 82.0317 18.7937C73.8016 11.0477 62.6392 6.696 51 6.696ZM61.4448 16.7424C64.7605 17.9224 67.8609 19.5806 70.635 21.6576C71.2725 22.1184 71.8845 22.608 72.4863 23.1312C72.5985 23.2224 72.6954 23.3184 72.8025 23.4192C74.4753 24.8736 75.9951 26.5104 77.3415 28.2672C77.5302 28.512 77.7291 28.7376 77.9025 28.9728C78.2289 29.424 78.5349 29.8944 78.8409 30.3648C79.3672 31.1582 79.8523 31.9752 80.2944 32.8128C80.5647 33.2928 80.8044 33.816 81.0543 34.3248C81.2226 34.6752 81.4113 35.0352 81.5643 35.4096C81.9366 36.2832 82.2681 37.1616 82.569 38.0592C82.6659 38.3568 82.7424 38.6736 82.8342 38.9712C83.3516 40.6791 83.7183 42.4242 83.9307 44.1888C83.9664 44.5056 84.0174 44.8416 84.0429 45.1536C84.1449 46.1856 84.2112 47.2272 84.2112 48.2736C84.2047 50.3182 84.005 52.3583 83.6145 54.3696C83.5431 54.72 83.4819 55.0752 83.4105 55.4112C83.2065 56.3232 82.9719 57.216 82.6965 58.0992C80.1006 56.9808 77.0508 55.3344 76.2552 53.5248C74.8068 50.2608 70.9512 48.6288 69.3804 44.424C66.7947 37.464 70.227 37.6464 70.7064 33.3264C70.9308 31.3008 69.3804 30.8784 67.3353 31.704C62.5617 33.5904 60.945 32.8656 59.9811 29.4816C59.0172 26.1072 59.9811 25.1664 59.9811 25.1664C56.7273 25.5024 56.6049 21.7728 58.293 20.832C59.466 20.1984 60.4605 18.2544 61.4448 16.7424ZM47.8074 37.4256C50.8164 36.1296 53.5959 35.664 53.2287 33.4368C52.8717 31.2336 52.0251 29.592 47.3229 29.592C42.6207 29.592 44.6709 35.664 40.8153 32.04C36.9597 28.44 41.6568 29.3712 43.5846 28.5504C45.5175 27.7248 47.4453 24.3408 44.0691 24.1008C40.698 23.8752 41.4171 25.5024 38.7651 24.5808C36.1131 23.64 34.9095 27.84 33.2163 27.2544C32.1045 26.8608 29.121 24.7008 27.1422 22.5744C23.1044 25.8798 19.9077 29.9974 17.7888 34.6224C18.3651 40.896 21.8892 44.1888 21.8892 44.1888C21.8892 44.1888 23.6997 48.2736 34.5525 53.2944C34.5525 53.2944 36.5925 53.4096 34.1853 51.0816C31.7781 48.744 29.121 45.8256 32.1351 44.3136C35.1441 42.7824 35.9958 42.912 36.72 45.72C37.4391 48.5232 39.8565 46.872 40.0911 44.1888C40.3359 41.5152 44.7933 38.7168 47.8074 37.4208V37.4256ZM45.5124 51.5376C50.7042 51.5376 50.2197 53.0592 54.3201 56.4576C58.4154 59.8368 56.2479 63.2208 54.1926 65.7936C52.1475 68.3568 50.337 71.2656 49.3731 76.536C48.4041 81.7872 45.8745 78.0432 45.0381 76.7616C44.1915 75.4704 42.8655 74.3088 43.2327 68.9376C43.5897 63.5712 39.729 66.7296 38.4081 59.7216C37.0821 52.7232 40.3359 51.5424 45.5175 51.5424L45.5124 51.5376ZM70.8951 56.1648C72.2772 55.3344 75.5871 57.4992 74.8731 59.7792C74.1438 62.0592 71.859 60.7728 70.7115 59.7792C69.564 58.7904 69.5028 56.9808 70.8951 56.1648Z" fill="#4285F4"/>
<path d="M109.23 57V36.4922H113.361V57H109.23ZM114.943 48.6211V44.959H115.324C116.574 44.959 117.375 44.4512 117.727 43.4355C117.805 43.1816 117.844 42.918 117.844 42.6445C117.844 41.6094 117.355 40.916 116.379 40.5645C116.066 40.4473 115.715 40.3887 115.324 40.3887H114.943V36.4922H115.588C118.146 36.5312 119.943 37.4395 120.979 39.2168C121.467 40.0566 121.711 41.0039 121.711 42.0586C121.691 44.0703 121.027 45.6133 119.719 46.6875C120.695 47.3125 121.32 48.4453 121.594 50.0859C121.613 50.2812 121.633 50.4668 121.652 50.6426L122.15 57H118.342L117.902 51.7852C117.746 50.2227 117.297 49.2559 116.555 48.8848C116.203 48.7285 115.773 48.6406 115.266 48.6211H114.943ZM126.308 52.459V44.7832C126.328 43.8262 126.767 42.8887 127.627 41.9707C128.681 40.877 129.97 40.3203 131.494 40.3008V43.9922C130.927 43.9922 130.537 44.2363 130.322 44.7246C130.263 44.8418 130.234 44.9492 130.234 45.0469V46.5117H134.599V45.0762C134.58 44.3535 134.072 43.9922 133.076 43.9922V40.3008C134.502 40.3008 135.752 40.7891 136.826 41.7656C137.763 42.625 138.242 43.6211 138.261 44.7539V50.291H130.234V52.459C130.371 53.0254 130.8 53.3379 131.523 53.3965V57C129.687 57 128.232 56.248 127.158 54.7441C126.591 53.9434 126.308 53.1816 126.308 52.459ZM133.076 57V53.4258C134.13 53.4062 134.804 52.9082 135.097 51.9316L138.291 53.1328C137.998 54.3828 137.255 55.3887 136.064 56.1504C135.146 56.7168 134.15 57 133.076 57ZM142.39 52.6055L146.023 51.9316C146.023 52.5762 146.355 53.0352 147.019 53.3086C147.253 53.3867 147.468 53.4355 147.663 53.4551V57.1465C145.398 57.1465 143.825 56.3457 142.946 54.7441C142.575 54.0801 142.39 53.3672 142.39 52.6055ZM142.566 44.8711C142.566 43.0547 143.415 41.707 145.114 40.8281C145.954 40.3789 146.784 40.1543 147.605 40.1543V43.7871C146.648 43.8066 146.169 44.168 146.169 44.8711C146.169 45.6133 147.068 46.2676 148.864 46.834C149.529 47.0488 150.31 47.2539 151.208 47.4492C152.556 47.7031 153.513 48.4551 154.079 49.7051C154.372 50.3496 154.519 51.0625 154.519 51.8438C154.519 53.875 153.718 55.3691 152.116 56.3262C151.198 56.873 150.154 57.1465 148.982 57.1465V53.4551C149.665 53.4551 150.173 53.2305 150.505 52.7812C150.661 52.5664 150.739 52.332 150.739 52.0781C150.739 51.4727 149.997 50.9453 148.513 50.4961C148.279 50.4375 147.917 50.3398 147.429 50.2031C146.394 49.9297 145.681 49.7051 145.29 49.5293C143.864 48.8066 143.005 47.7422 142.712 46.3359C142.614 45.8672 142.566 45.3789 142.566 44.8711ZM148.923 43.7871L148.952 40.1543C150.71 40.1543 152.126 40.7988 153.2 42.0879C153.884 42.9277 154.226 43.8164 154.226 44.7539L150.622 45.3691C150.622 44.4902 150.154 43.9727 149.216 43.8164C149.099 43.7969 149.001 43.7871 148.923 43.7871ZM164.243 57V53.1914H165.239C165.884 53.1523 166.274 52.8887 166.411 52.4004V44.9004C166.411 44.6465 166.255 44.4316 165.942 44.2559C165.727 44.1582 165.493 44.1094 165.239 44.1094H164.243V40.3008H165.239C167.075 40.3008 168.501 41.082 169.516 42.6445C170.024 43.4453 170.278 44.1777 170.278 44.8418V52.459C170.278 53.3574 169.888 54.2754 169.106 55.2129C168.071 56.3848 166.782 56.9805 165.239 57H164.243ZM158.647 62.8301V40.3008H162.778V62.8301H158.647ZM175.11 52.459V44.8125C175.11 43.8555 175.53 42.918 176.37 42C177.424 40.8867 178.762 40.3203 180.383 40.3008V44.1094C179.504 44.1875 179.036 44.5586 178.977 45.2227V52.0488C179.016 52.8105 179.485 53.2012 180.383 53.2207V57.0293C178.469 57.0293 176.985 56.2578 175.93 54.7148C175.383 53.9141 175.11 53.1621 175.11 52.459ZM181.731 57.0293V53.2207C182.551 53.123 183 52.752 183.079 52.1074L183.049 45.2227C182.912 44.5195 182.463 44.1484 181.702 44.1094V40.3008C183.537 40.3008 184.973 41.043 186.008 42.5273C186.555 43.3281 186.829 44.0898 186.829 44.8125V52.459C186.829 53.4355 186.409 54.3926 185.569 55.3301C184.553 56.4434 183.274 57.0098 181.731 57.0293ZM191.455 57V44.8418C191.455 43.8652 191.895 42.9082 192.773 41.9707C193.848 40.8574 195.186 40.291 196.787 40.2715V44.168C195.967 44.2656 195.518 44.6465 195.439 45.3105V57H191.455ZM198.135 44.168V40.2715C200.029 40.2715 201.523 41.0234 202.617 42.5273C203.203 43.3477 203.496 44.1191 203.496 44.8418V57H199.512V45.3105C199.512 44.666 199.15 44.2949 198.428 44.1973C198.33 44.1777 198.232 44.168 198.135 44.168ZM207.595 52.6055L211.228 51.9316C211.228 52.5762 211.56 53.0352 212.224 53.3086C212.459 53.3867 212.673 53.4355 212.869 53.4551V57.1465C210.603 57.1465 209.031 56.3457 208.152 54.7441C207.781 54.0801 207.595 53.3672 207.595 52.6055ZM207.771 44.8711C207.771 43.0547 208.621 41.707 210.32 40.8281C211.16 40.3789 211.99 40.1543 212.81 40.1543V43.7871C211.853 43.8066 211.375 44.168 211.375 44.8711C211.375 45.6133 212.273 46.2676 214.07 46.834C214.734 47.0488 215.515 47.2539 216.414 47.4492C217.761 47.7031 218.718 48.4551 219.285 49.7051C219.578 50.3496 219.724 51.0625 219.724 51.8438C219.724 53.875 218.923 55.3691 217.322 56.3262C216.404 56.873 215.359 57.1465 214.187 57.1465V53.4551C214.871 53.4551 215.379 53.2305 215.711 52.7812C215.867 52.5664 215.945 52.332 215.945 52.0781C215.945 51.4727 215.203 50.9453 213.718 50.4961C213.484 50.4375 213.123 50.3398 212.634 50.2031C211.599 49.9297 210.886 49.7051 210.496 49.5293C209.07 48.8066 208.211 47.7422 207.918 46.3359C207.82 45.8672 207.771 45.3789 207.771 44.8711ZM214.129 43.7871L214.158 40.1543C215.916 40.1543 217.332 40.7988 218.406 42.0879C219.089 42.9277 219.431 43.8164 219.431 44.7539L215.828 45.3691C215.828 44.4902 215.359 43.9727 214.421 43.8164C214.304 43.7969 214.207 43.7871 214.129 43.7871ZM224.175 37.9277C224.175 37.127 224.536 36.5215 225.259 36.1113C225.591 35.916 225.943 35.8184 226.314 35.8184C227.134 35.8184 227.749 36.1797 228.159 36.9023C228.335 37.2344 228.423 37.5762 228.423 37.9277C228.423 38.748 228.062 39.3633 227.339 39.7734C227.007 39.9492 226.665 40.0371 226.314 40.0371C225.474 40.0371 224.849 39.666 224.439 38.9238C224.263 38.6113 224.175 38.2793 224.175 37.9277ZM224.38 57V41.1797H228.306V57H224.38Z" fill="black" fill-opacity="0.8"/>
<path d="M113.352 74.8945C113.352 74.3086 113.594 73.7969 114.078 73.3594C114.5 72.9844 114.973 72.7969 115.496 72.7969V74.3203C115.277 74.3203 115.09 74.418 114.934 74.6133C114.824 74.7695 114.77 74.9531 114.77 75.1641L113.352 74.8945ZM113.598 81V79.3828H118.332V81H113.598ZM113.598 78.7734C113.598 78.25 113.945 77.7227 114.641 77.1914C114.742 77.1133 114.898 77 115.109 76.8516C115.305 76.7188 115.441 76.6211 115.52 76.5586C115.598 76.4961 115.719 76.4062 115.883 76.2891C116.398 75.9219 116.715 75.6367 116.832 75.4336C116.895 75.3164 116.926 75.207 116.926 75.1055C116.926 74.6992 116.738 74.4492 116.363 74.3555C116.285 74.332 116.211 74.3203 116.141 74.3203V72.7969C117.133 72.7969 117.82 73.1836 118.203 73.957C118.367 74.3008 118.449 74.6797 118.449 75.0938C118.449 75.7031 118.242 76.2227 117.828 76.6523C117.625 76.8633 117.355 77.0898 117.02 77.332C116.895 77.4258 116.707 77.5508 116.457 77.707C115.957 78.043 115.652 78.293 115.543 78.457C115.48 78.5664 115.449 78.6719 115.449 78.7734H113.598ZM122.362 81C121.245 81 120.542 80.2227 120.253 78.668C120.159 78.1523 120.112 77.5625 120.112 76.8984C120.112 74.3984 120.749 73.0391 122.023 72.8203C122.132 72.8047 122.245 72.7969 122.362 72.7969V74.3672C121.964 74.4609 121.745 75.0273 121.706 76.0664C121.698 76.2461 121.694 76.4805 121.694 76.7695V77.0273C121.694 78.1055 121.788 78.8008 121.976 79.1133C122.077 79.2852 122.206 79.3906 122.362 79.4297V81ZM123.007 81V79.4297C123.405 79.3359 123.624 78.7695 123.663 77.7305C123.671 77.5508 123.675 77.3164 123.675 77.0273V76.7695C123.675 75.6914 123.581 74.9961 123.394 74.6836C123.292 74.5117 123.163 74.4062 123.007 74.3672V72.7969C124.124 72.7969 124.827 73.5742 125.116 75.1289C125.21 75.6445 125.257 76.2344 125.257 76.8984C125.257 79.3984 124.62 80.7578 123.347 80.9766C123.237 80.9922 123.124 81 123.007 81ZM126.92 74.8945C126.92 74.3086 127.162 73.7969 127.647 73.3594C128.068 72.9844 128.541 72.7969 129.065 72.7969V74.3203C128.846 74.3203 128.658 74.418 128.502 74.6133C128.393 74.7695 128.338 74.9531 128.338 75.1641L126.92 74.8945ZM127.166 81V79.3828H131.9V81H127.166ZM127.166 78.7734C127.166 78.25 127.514 77.7227 128.209 77.1914C128.311 77.1133 128.467 77 128.678 76.8516C128.873 76.7188 129.01 76.6211 129.088 76.5586C129.166 76.4961 129.287 76.4062 129.451 76.2891C129.967 75.9219 130.283 75.6367 130.4 75.4336C130.463 75.3164 130.494 75.207 130.494 75.1055C130.494 74.6992 130.307 74.4492 129.932 74.3555C129.854 74.332 129.779 74.3203 129.709 74.3203V72.7969C130.701 72.7969 131.389 73.1836 131.772 73.957C131.936 74.3008 132.018 74.6797 132.018 75.0938C132.018 75.7031 131.811 76.2227 131.397 76.6523C131.193 76.8633 130.924 77.0898 130.588 77.332C130.463 77.4258 130.275 77.5508 130.025 77.707C129.525 78.043 129.221 78.293 129.111 78.457C129.049 78.5664 129.018 78.6719 129.018 78.7734H127.166ZM133.564 79.3359V77.8125L135.79 73.9922V76.9453L135.251 77.8125H135.79V79.3359H133.564ZM136.458 81V72.7852H138.099V77.8125H138.732V79.3359H138.099V81H136.458Z" fill="black" fill-opacity="0.9"/>
</svg>
